<svg xmlns="http://www.w3.org/2000/svg" xmlns:xlink="http://www.w3.org/1999/xlink" width="380" zoomAndPan="magnify" viewBox="0 0 285 284.999983" height="380" preserveAspectRatio="xMidYMid meet" version="1.0"><path fill="#e24329" d="M 276.449219 114.816406 L 276.070312 113.824219 L 238.371094 15.46875 C 237.617188 13.542969 236.261719 11.917969 234.5 10.796875 C 232.742188 9.667969 230.679688 9.136719 228.589844 9.25 C 226.511719 9.359375 224.515625 10.121094 222.886719 11.414062 C 221.269531 12.722656 220.101562 14.492188 219.550781 16.488281 L 194.097656 94.390625 L 91.117188 94.390625 L 65.664062 16.488281 C 65.117188 14.492188 63.949219 12.722656 62.332031 11.414062 C 60.703125 10.121094 58.703125 9.359375 56.625 9.25 C 54.535156 9.136719 52.472656 9.667969 50.714844 10.796875 C 48.953125 11.917969 47.597656 13.542969 46.84375 15.46875 L 9.148438 113.828125 L 8.765625 114.816406 C -2.402344 143.953125 7.113281 176.894531 31.988281 195.707031 C 32.035156 195.734375 32.078125 195.769531 32.125 195.804688 L 32.457031 196.058594 L 89.878906 239.046875 L 118.28125 260.546875 L 135.566406 273.613281 C 139.730469 276.765625 145.488281 276.765625 149.648438 273.613281 L 166.933594 260.546875 L 195.332031 239.046875 L 253.089844 195.804688 C 253.144531 195.765625 253.191406 195.730469 253.242188 195.6875 C 278.101562 176.875 287.613281 143.949219 276.449219 114.816406 Z M 276.449219 114.816406 " fill-opacity="1" fill-rule="nonzero"/><path fill="#fc6d26" d="M 276.449219 114.816406 L 276.070312 113.824219 C 257.367188 117.664062 240.140625 125.578125 225.390625 136.613281 C 225.152344 136.789062 180.570312 170.503906 142.609375 199.203125 C 170.792969 220.519531 195.328125 239.046875 195.328125 239.046875 L 253.089844 195.804688 C 253.144531 195.765625 253.191406 195.730469 253.242188 195.6875 C 278.101562 176.875 287.613281 143.949219 276.449219 114.816406 Z M 276.449219 114.816406 " fill-opacity="1" fill-rule="nonzero"/><path fill="#fca326" d="M 89.878906 239.046875 L 118.28125 260.546875 L 135.566406 273.613281 C 139.730469 276.765625 145.488281 276.765625 149.648438 273.613281 L 166.933594 260.546875 L 195.328125 239.046875 C 195.328125 239.046875 170.792969 220.519531 142.609375 199.203125 C 114.417969 220.519531 89.878906 239.046875 89.878906 239.046875 Z M 89.878906 239.046875 " fill-opacity="1" fill-rule="nonzero"/><path fill="#fc6d26" d="M 59.820312 136.613281 C 45.074219 125.582031 27.855469 117.664062 9.148438 113.828125 L 8.765625 114.816406 C -2.402344 143.953125 7.113281 176.894531 31.988281 195.707031 C 32.035156 195.734375 32.078125 195.769531 32.125 195.804688 L 32.457031 196.058594 L 89.878906 239.046875 C 89.878906 239.046875 114.417969 220.519531 142.609375 199.203125 C 104.648438 170.503906 60.058594 136.789062 59.820312 136.613281 Z M 59.820312 136.613281 " fill-opacity="1" fill-rule="nonzero"/></svg>